<svg xmlns="http://www.w3.org/2000/svg" width="58" height="58" viewBox="0 0 58 58" fill="none">
  <g stroke="#18B5A3" stroke-width="2.6" stroke-linecap="round" stroke-linejoin="round">
    <path d="M17.5 11.5h18.8c6.6 0 11.7 5.1 11.7 11.7v6.9c0 6.5-5.1 11.7-11.7 11.7H28L19.2 49l2-7.2h-3.7c-6.5 0-11.7-5.2-11.7-11.7v-6.9c0-6.6 5.2-11.7 11.7-11.7Z"/>
    <circle cx="13.3" cy="24.1" r="1.55" fill="#18B5A3"/>
    <path d="M29 15.3c1.9 5.4 2.3 9.4 1.2 12.1 2.7-2.3 5.5-6 8.4-11.2-1.1 4.8-3 8.6-5.8 11.5 4.9-.8 9-1 12.2-.6-4 1.8-8 2.7-12 2.8 2.3 2.2 4.2 4.9 5.5 8.1-3.6-1.7-6.5-3.8-8.7-6.4.1 4.4-1 8.1-3.4 11.1.7-3.8.8-7.1.1-10-2.4 2.7-5.5 4.8-9.3 6.2 2.2-3.2 4.8-5.9 8-8-3.9-.3-7.7-1.2-11.4-2.9 3.8-.4 7.6-.2 11.5.6-2.4-2.6-4.2-6.3-5.5-11 2.7 4.8 5.5 8.4 8.4 10.9-1.1-2.7-.8-6.7.8-12.2Z" fill="#18B5A3" stroke="none"/>
    <path d="M46.7 9.7l.7 2 .7-2 .7 2 .7-2" />
    <path d="M50.8 13.4l.45 1.2.45-1.2.45 1.2.45-1.2" />
  </g>
</svg>