<svg width="96" height="96" viewBox="0 0 96 96" fill="none" xmlns="http://www.w3.org/2000/svg">
  <defs>
    <linearGradient id="g" x1="16" y1="12" x2="76" y2="84" gradientUnits="userSpaceOnUse">
      <stop stop-color="#15B8A6"/>
      <stop offset="1" stop-color="#0F7B73"/>
    </linearGradient>
  </defs>
  <path d="M26 18H62C70.8366 18 78 25.1634 78 34V45C78 53.8366 70.8366 61 62 61H47L30 76L34 61H26C17.1634 61 10 53.8366 10 45V34C10 25.1634 17.1634 18 26 18Z" stroke="url(#g)" stroke-width="6" stroke-linejoin="round"/>
  <circle cx="21" cy="39" r="4.5" fill="#15B8A6" opacity="0.5"/>
  <circle cx="31" cy="39" r="4.5" fill="#15B8A6" opacity="0.9"/>
  <g transform="translate(49 38)">
    <path d="M0 -16C-1 -10 -3 -8 -7 -5C-7 -11 -10 -16 -15 -19C-14 -13 -16 -8 -21 -5C-17 -4 -14 -2 -12 2C-18 4 -23 8 -25 14C-18 13 -12 14 -7 18C-5 13 -2 8 0 4C2 8 5 13 7 18C12 14 18 13 25 14C23 8 18 4 12 2C14 -2 17 -4 21 -5C16 -8 14 -13 15 -19C10 -16 7 -11 7 -5C3 -8 1 -10 0 -16Z" fill="url(#g)"/>
    <path d="M0 -2V23" stroke="url(#g)" stroke-width="4.5" stroke-linecap="round"/>
  </g>
  <path d="M73 16L76 10" stroke="#7AEEDF" stroke-width="3" stroke-linecap="round"/>
  <path d="M80 20L86 17" stroke="#7AEEDF" stroke-width="3" stroke-linecap="round"/>
  <circle cx="80" cy="11" r="2.5" fill="#A8FFF2"/>
</svg>