<svg width="80" height="80" viewBox="0 0 80 80" fill="none" xmlns="http://www.w3.org/2000/svg">
  <path d="M18 16H50C58.8366 16 66 23.1634 66 32V35.5C66 44.3366 58.8366 51.5 50 51.5H34L19 63L23.5 51.5H18C9.16344 51.5 2 44.3366 2 35.5V32C2 23.1634 9.16344 16 18 16Z" stroke="#15B8A6" stroke-width="4" stroke-linejoin="round"/>
  <circle cx="12" cy="33" r="3.5" fill="#15B8A6"/>
  <circle cx="21" cy="33" r="3.5" fill="#15B8A6" opacity="0.55"/>
  <path d="M42.6 21.3C41.6 25.1 40 27.5 38.6 29.1C36.6 27.1 34.8 23.8 33.8 20C31.4 21.1 29.9 24.1 29.2 28.2C26.1 26 22.8 25.4 20.4 26.6C21.7 29.6 24 31.8 27.2 33.2C23.7 34 21.4 35.8 20.4 38.5C24.1 39.3 27.4 38.5 30.2 36.2C30 39.7 31 42.8 33 45.2C35.1 43.1 36.9 40 38.2 35.9C39.4 40 41.3 43.2 43.6 45.5C45.6 43.1 46.6 39.9 46.4 36.3C49 38.4 52.3 39.1 56 38.3C55 35.6 52.7 33.9 49.3 33.2C52.5 31.7 54.8 29.3 56 26.2C53.6 25.1 50.4 25.8 47.3 28.1C46.7 24.8 45.1 22.2 42.6 21.3Z" fill="#15B8A6"/>
  <path d="M38.4 27V50" stroke="#15B8A6" stroke-width="3" stroke-linecap="round"/>
</svg>