<svg xmlns="http://www.w3.org/2000/svg" width="64" height="64" viewBox="0 0 64 64" fill="none">
  <path d="M14 13C8.477 13 4 17.477 4 23V31C4 36.523 8.477 41 14 41H17.5L15 51L29 41H42C47.523 41 52 36.523 52 31V23C52 17.477 47.523 13 42 13H14Z" stroke="#19B5A1" stroke-width="4" stroke-linejoin="round"/>
  <circle cx="11" cy="27" r="3.5" fill="#19B5A1"/>
  <circle cx="18.5" cy="27" r="3" fill="#8FE4D7"/>
  <path d="M31 16L31.8 23.2C34.4 19.8 37.7 17.2 41.6 15.8C40.9 20.2 38.7 23.6 35.6 26.1C39.5 25.6 42.9 26.2 46 27.9C42.9 29.7 39.4 30.1 35.6 29.7C38.9 32.3 41.1 35.7 41.6 40.1C37.9 38.7 34.5 36.1 31.9 32.7L31 40.4L30.1 32.7C27.5 36.1 24.1 38.7 20.4 40.1C20.9 35.7 23.1 32.3 26.4 29.7C22.6 30.1 19.1 29.7 16 27.9C19.1 26.2 22.5 25.6 26.4 26.1C23.3 23.6 21.1 20.2 20.4 15.8C24.3 17.2 27.6 19.8 30.2 23.2L31 16Z" fill="#19B5A1"/>
</svg>
