<svg width="64" height="64" viewBox="0 0 64 64" fill="none" xmlns="http://www.w3.org/2000/svg">
  <path d="M18 11h24c6.1 0 11 4.9 11 11v10c0 6.1-4.9 11-11 11H28l-8 8 2.4-8H18c-6.1 0-11-4.9-11-11V22c0-6.1 4.9-11 11-11Z" stroke="#14B8A6" stroke-width="3.5" stroke-linejoin="round"/>
  <path d="M32 17.5v21" stroke="#0F766E" stroke-width="2.8" stroke-linecap="round"/>
  <path d="M32 21.5c-1.8-7.5-7.1-9.3-9.4-9.6 1 2.7 2.2 5 4.5 7.1-3.5-1.1-6.8-.5-9.5.6 2 2.4 4.4 4 7.3 4.8-3 .9-5.1 2.5-6.6 4.8 3.2.8 6.7.7 9.8-.8-1.9 2.8-2.1 5.4-1.6 8 2.7-1.1 4.4-2.9 5.5-5.5" fill="#14B8A6"/>
  <path d="M32 21.5c1.8-7.5 7.1-9.3 9.4-9.6-1 2.7-2.2 5-4.5 7.1 3.5-1.1 6.8-.5 9.5.6-2 2.4-4.4 4-7.3 4.8 3 .9 5.1 2.5 6.6 4.8-3.2.8-6.7.7-9.8-.8 1.9 2.8 2.1 5.4 1.6 8-2.7-1.1-4.4-2.9-5.5-5.5" fill="#14B8A6"/>
</svg>