<svg width="64" height="64" viewBox="0 0 64 64" fill="none" xmlns="http://www.w3.org/2000/svg">
  <path d="M16 13H41C48.1797 13 54 18.8203 54 26V33C54 40.1797 48.1797 46 41 46H31L18 57L21 46H16C8.8203 46 3 40.1797 3 33V26C3 18.8203 8.8203 13 16 13Z"
        stroke="#14B8A6" stroke-width="3.5" stroke-linejoin="round"/>
  <circle cx="12" cy="29.5" r="2.5" fill="#14B8A6" opacity="0.65"/>
  <g transform="translate(31 29)">
    <path d="M0 -12
             C-1 -8 -3 -6 -6 -4
             C-6 -9 -8 -12 -12 -14
             C-11 -10 -12 -6 -16 -4
             C-13 -3 -11 -1 -9 2
             C-14 4 -17 8 -18 12
             C-13 11 -9 12 -5 15
             C-3 11 -1 7 0 4
             C1 7 3 11 5 15
             C9 12 13 11 18 12
             C17 8 14 4 9 2
             C11 -1 13 -3 16 -4
             C12 -6 11 -10 12 -14
             C8 -12 6 -9 6 -4
             C3 -6 1 -8 0 -12Z"
          fill="#14B8A6"/>
    <path d="M0 0V19" stroke="#14B8A6" stroke-width="2.75" stroke-linecap="round"/>
  </g>
</svg>
