<svg xmlns="http://www.w3.org/2000/svg" width="112" height="84" viewBox="0 0 112 84" fill="none">
  <g transform="translate(6 8)">
    <path d="M22 4H72C84.1503 4 94 13.8497 94 26V30C94 42.1503 84.1503 52 72 52H49L31 67L34.8 52H22C9.84974 52 0 42.1503 0 30V26C0 13.8497 9.84974 4 22 4Z" stroke="#21B8AA" stroke-width="4.5" stroke-linejoin="round"/>
    <circle cx="17.5" cy="29" r="4.6" fill="#21B8AA"/>
    <path d="M50.5 44.2C53.9 39.6 55.1 34.8 55.4 31.1C49.9 36.9 41.7 40.6 34.2 40.2C39.2 36.6 42.5 33.1 44.8 28.8C37.4 30.5 30.1 28.8 24.2 24.8C31.3 23.8 36.8 21.4 41.3 17.1C45.1 20.8 49.8 23 55.4 24.2C55 17.1 56.9 10.6 61.1 5.4C64.9 10.8 66.8 17.1 66.4 24.2C72 23 76.7 20.8 80.5 17.1C85 21.4 90.5 23.8 97.6 24.8C91.7 28.8 84.4 30.5 77 28.8C79.3 33.1 82.6 36.6 87.6 40.2C80.1 40.6 71.9 36.9 66.4 31.1C66.7 34.9 67.9 39.8 71.4 44.5C67 42.7 63.8 40 61 36.8C58.1 39.9 54.9 42.5 50.5 44.2Z" fill="#21B8AA"/>
    <path d="M89.5 3.5L91 7L94.5 8.5L91 10L89.5 13.5L88 10L84.5 8.5L88 7L89.5 3.5Z" fill="#21B8AA"/>
    <path d="M98 9L98.9 11L101 11.9L98.9 12.8L98 14.8L97.1 12.8L95 11.9L97.1 11L98 9Z" fill="#21B8AA"/>
  </g>
</svg>