<svg width="64" height="64" viewBox="0 0 64 64" fill="none" xmlns="http://www.w3.org/2000/svg">
  <path d="M14 12.5H40C47.1797 12.5 53 18.3203 53 25.5V31C53 38.1797 47.1797 44 40 44H27.5L16 54.5L19.5 44H14C6.8203 44 1 38.1797 1 31V25.5C1 18.3203 6.8203 12.5 14 12.5Z" stroke="#15B8A6" stroke-width="4" stroke-linecap="round" stroke-linejoin="round"/>
  <circle cx="11" cy="28" r="3" fill="#15B8A6"/>
  <circle cx="18.5" cy="28" r="3" fill="#15B8A6" opacity="0.65"/>
  <path d="M32 18.5V24.5" stroke="#15B8A6" stroke-width="2.6" stroke-linecap="round"/>
  <path d="M32 24.5C28.5 18.5 23 18 20 20.5C22.8 21.6 24.7 23.6 25.4 26.4C22.1 24.5 18.6 24.6 16.5 27C20.2 28 22.8 30 24 32.8C21 33.1 18.8 35 18.5 38C23 37.6 27.1 35.6 29.3 32.4L32 30" fill="#15B8A6"/>
  <path d="M32 24.5C35.5 18.5 41 18 44 20.5C41.2 21.6 39.3 23.6 38.6 26.4C41.9 24.5 45.4 24.6 47.5 27C43.8 28 41.2 30 40 32.8C43 33.1 45.2 35 45.5 38C41 37.6 36.9 35.6 34.7 32.4L32 30" fill="#15B8A6"/>
  <path d="M32 24.5C31 20 31.4 16.4 32 14C32.6 16.4 33 20 32 24.5Z" fill="#15B8A6"/>
</svg>