<svg xmlns="http://www.w3.org/2000/svg" width="72" height="72" viewBox="0 0 72 72" fill="none">
  <g stroke="#19B5A2" stroke-width="3.5" stroke-linecap="round" stroke-linejoin="round">
    <path d="M17 16.5h24.5c8.2 0 13.5 5.1 13.5 12.7v8.6c0 7.7-5.3 12.7-13.5 12.7H33.7L20.9 60l3-9.5h-6.9C8.8 50.5 4 45.5 4 37.8v-8.6c0-7.7 4.8-12.7 13-12.7Z"/>
  </g>
  <circle cx="14" cy="33" r="3.4" fill="#19B5A2"/>
  <path fill="#19B5A2" d="M35.9 19.4c2.6 6.2 2.7 11.7.5 17.1 3.7-3.6 8.2-6 14.2-6.6-4.2 4.2-7 8.6-8 13.8 4.6-.8 9 .1 13.3 2.8-5.5 1.8-10.8 2.4-16.2 1.2 1.6 5.1 1.2 10.2-1.6 15.4-2.8-4.9-3.5-9.9-2.2-15.2-4.6 2.3-9.7 3-15.1 1.9 3.7-3.8 8-5.9 12.9-7-4.2-1.8-7.9-4.6-10.9-8.8 5.4-.1 10.2 1.2 14.2 4.3-1-5.8-.2-11.1 2.9-16.9Z"/>
</svg>